<svg width="95" height="15" viewBox="0 0 95 15" fill="none" xmlns="http://www.w3.org/2000/svg">
<path d="M14.3463 1.436V14H11.8263V5.828L8.46025 14H6.55225L3.16825 5.828V14H0.64825V1.436H3.51025L7.50625 10.778L11.5023 1.436H14.3463ZM26.1077 8.798C26.1077 9.158 26.0837 9.482 26.0357 9.77H18.7457C18.8057 10.49 19.0577 11.054 19.5017 11.462C19.9457 11.87 20.4917 12.074 21.1397 12.074C22.0757 12.074 22.7417 11.672 23.1377 10.868H25.8557C25.5677 11.828 25.0157 12.62 24.1997 13.244C23.3837 13.856 22.3817 14.162 21.1937 14.162C20.2337 14.162 19.3697 13.952 18.6017 13.532C17.8457 13.1 17.2517 12.494 16.8197 11.714C16.3997 10.934 16.1897 10.034 16.1897 9.014C16.1897 7.982 16.3997 7.076 16.8197 6.296C17.2397 5.516 17.8277 4.916 18.5837 4.496C19.3397 4.076 20.2097 3.866 21.1937 3.866C22.1417 3.866 22.9877 4.07 23.7317 4.478C24.4877 4.886 25.0697 5.468 25.4777 6.224C25.8977 6.968 26.1077 7.826 26.1077 8.798ZM23.4977 8.078C23.4857 7.43 23.2517 6.914 22.7957 6.53C22.3397 6.134 21.7817 5.936 21.1217 5.936C20.4977 5.936 19.9697 6.128 19.5377 6.512C19.1177 6.884 18.8597 7.406 18.7637 8.078H23.4977ZM30.8811 6.098V10.922C30.8811 11.258 30.9591 11.504 31.1151 11.66C31.2831 11.804 31.5591 11.876 31.9431 11.876H33.1131V14H31.5291C29.4051 14 28.3431 12.968 28.3431 10.904V6.098H27.1551V4.028H28.3431V1.562H30.8811V4.028H33.1131V6.098H30.8811ZM34.2776 8.978C34.2776 7.97 34.4756 7.076 34.8716 6.296C35.2796 5.516 35.8256 4.916 36.5096 4.496C37.2056 4.076 37.9796 3.866 38.8316 3.866C39.5756 3.866 40.2236 4.016 40.7756 4.316C41.3396 4.616 41.7896 4.994 42.1256 5.45V4.028H44.6636V14H42.1256V12.542C41.8016 13.01 41.3516 13.4 40.7756 13.712C40.2116 14.012 39.5576 14.162 38.8136 14.162C37.9736 14.162 37.2056 13.946 36.5096 13.514C35.8256 13.082 35.2796 12.476 34.8716 11.696C34.4756 10.904 34.2776 9.998 34.2776 8.978ZM42.1256 9.014C42.1256 8.402 42.0056 7.88 41.7656 7.448C41.5256 7.004 41.2016 6.668 40.7936 6.44C40.3856 6.2 39.9476 6.08 39.4796 6.08C39.0116 6.08 38.5796 6.194 38.1836 6.422C37.7876 6.65 37.4636 6.986 37.2116 7.43C36.9716 7.862 36.8516 8.378 36.8516 8.978C36.8516 9.578 36.9716 10.106 37.2116 10.562C37.4636 11.006 37.7876 11.348 38.1836 11.588C38.5916 11.828 39.0236 11.948 39.4796 11.948C39.9476 11.948 40.3856 11.834 40.7936 11.606C41.2016 11.366 41.5256 11.03 41.7656 10.598C42.0056 10.154 42.1256 9.626 42.1256 9.014ZM56.2868 5.324C56.2868 5.996 56.1248 6.626 55.8008 7.214C55.4888 7.802 54.9908 8.276 54.3068 8.636C53.6348 8.996 52.7828 9.176 51.7508 9.176H49.6448V14H47.1248V1.436H51.7508C52.7228 1.436 53.5508 1.604 54.2348 1.94C54.9188 2.276 55.4288 2.738 55.7648 3.326C56.1128 3.914 56.2868 4.58 56.2868 5.324ZM51.6428 7.142C52.3388 7.142 52.8548 6.986 53.1908 6.674C53.5268 6.35 53.6948 5.9 53.6948 5.324C53.6948 4.1 53.0108 3.488 51.6428 3.488H49.6448V7.142H51.6428ZM57.428 8.978C57.428 7.97 57.626 7.076 58.022 6.296C58.43 5.516 58.976 4.916 59.66 4.496C60.356 4.076 61.13 3.866 61.982 3.866C62.726 3.866 63.374 4.016 63.926 4.316C64.49 4.616 64.94 4.994 65.276 5.45V4.028H67.814V14H65.276V12.542C64.952 13.01 64.502 13.4 63.926 13.712C63.362 14.012 62.708 14.162 61.964 14.162C61.124 14.162 60.356 13.946 59.66 13.514C58.976 13.082 58.43 12.476 58.022 11.696C57.626 10.904 57.428 9.998 57.428 8.978ZM65.276 9.014C65.276 8.402 65.156 7.88 64.916 7.448C64.676 7.004 64.352 6.668 63.944 6.44C63.536 6.2 63.098 6.08 62.63 6.08C62.162 6.08 61.73 6.194 61.334 6.422C60.938 6.65 60.614 6.986 60.362 7.43C60.122 7.862 60.002 8.378 60.002 8.978C60.002 9.578 60.122 10.106 60.362 10.562C60.614 11.006 60.938 11.348 61.334 11.588C61.742 11.828 62.174 11.948 62.63 11.948C63.098 11.948 63.536 11.834 63.944 11.606C64.352 11.366 64.676 11.03 64.916 10.598C65.156 10.154 65.276 9.626 65.276 9.014ZM74.0912 14.162C73.2752 14.162 72.5432 14.018 71.8952 13.73C71.2472 13.43 70.7312 13.028 70.3472 12.524C69.9752 12.02 69.7712 11.462 69.7352 10.85H72.2732C72.3212 11.234 72.5072 11.552 72.8312 11.804C73.1672 12.056 73.5812 12.182 74.0732 12.182C74.5532 12.182 74.9252 12.086 75.1892 11.894C75.4652 11.702 75.6032 11.456 75.6032 11.156C75.6032 10.832 75.4352 10.592 75.0992 10.436C74.7752 10.268 74.2532 10.088 73.5332 9.896C72.7892 9.716 72.1772 9.53 71.6972 9.338C71.2292 9.146 70.8212 8.852 70.4732 8.456C70.1372 8.06 69.9692 7.526 69.9692 6.854C69.9692 6.302 70.1252 5.798 70.4372 5.342C70.7612 4.886 71.2172 4.526 71.8052 4.262C72.4052 3.998 73.1072 3.866 73.9112 3.866C75.0992 3.866 76.0472 4.166 76.7552 4.766C77.4632 5.354 77.8532 6.152 77.9252 7.16H75.5132C75.4772 6.764 75.3092 6.452 75.0092 6.224C74.7212 5.984 74.3312 5.864 73.8392 5.864C73.3832 5.864 73.0292 5.948 72.7772 6.116C72.5372 6.284 72.4172 6.518 72.4172 6.818C72.4172 7.154 72.5852 7.412 72.9212 7.592C73.2572 7.76 73.7792 7.934 74.4872 8.114C75.2072 8.294 75.8012 8.48 76.2692 8.672C76.7372 8.864 77.1392 9.164 77.4752 9.572C77.8232 9.968 78.0032 10.496 78.0152 11.156C78.0152 11.732 77.8532 12.248 77.5292 12.704C77.2172 13.16 76.7612 13.52 76.1612 13.784C75.5732 14.036 74.8832 14.162 74.0912 14.162ZM79.4358 8.978C79.4358 7.97 79.6338 7.076 80.0298 6.296C80.4378 5.516 80.9838 4.916 81.6678 4.496C82.3638 4.076 83.1378 3.866 83.9898 3.866C84.7338 3.866 85.3818 4.016 85.9338 4.316C86.4978 4.616 86.9478 4.994 87.2838 5.45V4.028H89.8218V14H87.2838V12.542C86.9598 13.01 86.5098 13.4 85.9338 13.712C85.3698 14.012 84.7158 14.162 83.9718 14.162C83.1318 14.162 82.3638 13.946 81.6678 13.514C80.9838 13.082 80.4378 12.476 80.0298 11.696C79.6338 10.904 79.4358 9.998 79.4358 8.978ZM87.2838 9.014C87.2838 8.402 87.1638 7.88 86.9238 7.448C86.6838 7.004 86.3598 6.668 85.9518 6.44C85.5438 6.2 85.1058 6.08 84.6378 6.08C84.1698 6.08 83.7378 6.194 83.3418 6.422C82.9458 6.65 82.6218 6.986 82.3698 7.43C82.1298 7.862 82.0098 8.378 82.0098 8.978C82.0098 9.578 82.1298 10.106 82.3698 10.562C82.6218 11.006 82.9458 11.348 83.3418 11.588C83.7498 11.828 84.1818 11.948 84.6378 11.948C85.1058 11.948 85.5438 11.834 85.9518 11.606C86.3598 11.366 86.6838 11.03 86.9238 10.598C87.1638 10.154 87.2838 9.626 87.2838 9.014ZM94.803 0.68V14H92.283V0.68H94.803Z" fill="white"/>
</svg>
